<svg xmlns="http://www.w3.org/2000/svg" viewBox="0 0 32 32"><path d="M6.5 2v5.5c0 1.486 1.08 2.632 2.5 2.91V2c0-1.29 2-1.29 2 0v8.41c1.42-.278 2.5-1.424 2.5-2.91V2c0-1.29 2-1.29 2 0v5.5c0 2.597-1.988 4.597-4.5 4.935V30c0 1.29-2 1.29-2 0V12.435c-2.512-.338-4.5-2.338-4.5-4.935V2c0-1.29 2-1.29 2 0zm17.207-.707C23.09.676 22 1.128 22 2v28c0 1.29 2 1.29 2 0v-9h3.5a1 1 0 0 0 1-1c0-5.492-.763-9.72-1.734-12.79-.962-3.04-2.15-5.009-3.059-5.917zM26.491 19H24V5.519c1.855 4.195 2.41 8.94 2.491 13.481z" fill="#fff"/></svg>
