<?xml version="1.0" encoding="UTF-8"?><!DOCTYPE svg PUBLIC "-//W3C//DTD SVG 1.1//EN" "http://www.w3.org/Graphics/SVG/1.1/DTD/svg11.dtd"><svg xmlns="http://www.w3.org/2000/svg" xmlns:xlink="http://www.w3.org/1999/xlink"><symbol id="arrow" viewBox="0 0 32 10"><path d="m25 10 7-5-7-5v4H0v2h25v4z"/></symbol><symbol id="cat-pro" viewBox="0 0 280 280"><path d="M250.2 95.6a30.402 30.402 0 0 1 9-9.2c2-1.4 3.2-1.4 4.4 1.2 1.6 3.8 3 7.8 1.8 12a4.577 4.577 0 0 0 .8 4.2c1.2 1.6 2.2 3.2 3.2 4.6a12.54 12.54 0 0 1 1.8 12.4 10.865 10.865 0 0 0-.4 6.2c.4 1.98.4 4.02 0 6a7.502 7.502 0 0 1-5.4 6.4 10.424 10.424 0 0 0-6.4 4 2.104 2.104 0 0 1-1.8 1c-2.4.4-8.4-5-8.4-7.4v-1.2c.2-7.2-.2-7.8-6.8-10.8a8.779 8.779 0 0 1-3.6-2.4c-1.2-1.6-2.8-1.4-4.6-.8-1.8.6-2.8 1.8-2.6 3.8.603 4.842.804 9.725.6 14.6.013.556.15 1.103.4 1.6 6.2 9 8.6 19.6 11.6 29.8 2.4 7.8 6.8 12 14.8 12.6 1.28.102 2.551.303 3.8.6a8.322 8.322 0 0 1 6.8 6.4c1.4 4.2.6 5.2-3.6 5.2h-13a6.481 6.481 0 0 1-4.6-1.6 23.413 23.413 0 0 0-6.8-4 14.525 14.525 0 0 1-6.8-5.2 57.213 57.213 0 0 0-8-9c-5.6-5.8-11.6-11.4-16.8-17.4a22.758 22.758 0 0 1-6.4-15.2c0-1.8-.4-2.6-2.4-1.8a3.865 3.865 0 0 1-2 .6c-5.6 0-8.4 3.4-10.4 8.4-1.8 4.2-4.2 8.2-6.4 12.4a20.786 20.786 0 0 0-2 8.4c0 4.8 1.2 6.4 5.6 8 2.8 1 5.4 2 6.8 4.8 1.6 3.2 1.2 4-2.2 4.2h-13.6a3.763 3.763 0 0 1-3.8-2.2l-3.6-6a12.103 12.103 0 0 1-1.4-10.8c.866-3.473.934-7.097.2-10.6a16.841 16.841 0 0 1 3.4-14c1.2-1.4 1.2-2-.8-2.4a100.105 100.105 0 0 1-23.6-8.2.197.197 0 0 1-.141-.059.197.197 0 0 1-.059-.141c-6.4-2.4-7.6-2-9.4 4.6-1.6 5.6-3.2 11.2-4.4 17-1.4 6.4.2 12.4 2.2 18.4.8 2.4 3.2 2.2 5 2.8 4 1.2 7.4 2.8 9 7 1.4 3.2 1.2 3.6-2.2 3.6-3.4 0-6.8-.2-10.4 0a13.278 13.278 0 0 1-8.4-2.8c-9.6-6.4-12.4-16.2-13.2-26.8-.4-6.6-4-11.8-8.2-16.8-.8-1-1.6-1.4-2.8-.6a88.649 88.649 0 0 1-13.4 6 53.421 53.421 0 0 0-24.4 17.6 21.26 21.26 0 0 0-4.4 10.2c-.6 3.6.4 5.2 4 6.2s5.4 3 5.8 6.8c.2 1.6-.4 2.4-2 2.4H53.4a3.308 3.308 0 0 1-2.6-1.6 17.121 17.121 0 0 1-3.8-11c-.105-6.91.498-13.813 1.8-20.6a12.594 12.594 0 0 1 6.8-9.6c11.8-5.6 18-16.2 23.6-27.2 1.2-2.2.2-2.6-1.8-2.4a32.94 32.94 0 0 0-15.4 6.4 141.256 141.256 0 0 0-16.6 14.2 33.343 33.343 0 0 1-20.6 9.8c-14.6.8-21.4-7.4-20.8-20.6a19.378 19.378 0 0 1 4.8-12.2 8.504 8.504 0 0 1 9-3c3 .8 3.8 2.4 2.6 5.4-.6 1.2-1.4 2.2-2 3.4a15 15 0 0 0-2 4c-2.2 6 .8 10.2 7 10.8 6.6.6 12-2.2 17-6.2a89.903 89.903 0 0 0 16-16.6A41.579 41.579 0 0 1 85.2 97c4.6-.6 8.6-2.6 13-3.8a83.02 83.02 0 0 1 25.4-3.6 26.001 26.001 0 0 0 11.6-2.2c9.8-4 20-4 30.2-2 8 1.6 16 3.6 23.8 5.6a33.16 33.16 0 0 0 14-.4 135.58 135.58 0 0 1 26.8-4 36.32 36.32 0 0 1 17.2 3.4c4 1.8 4 1.8 3 5.6z"/></symbol><symbol id="cat-slim" viewBox="0 0 280 280"><path d="M179.68 29h-.76a6.956 6.956 0 0 0-2.92 3.147 30.524 30.524 0 0 0-2.58 6.75 3.214 3.214 0 0 1-1.022 1.827c-.535.48-1.217.77-1.938.825a14.755 14.755 0 0 0-6.105 2.543 14.57 14.57 0 0 0-4.355 4.94 53.806 53.806 0 0 0-3.7 7.917c-2.84 7.284-5.02 14.806-7.7 22.15-1.26 3.344-1.32 3.344-5.12 3.344-4.54 0-4.22-.692-4.28 4.256 0 1.564.48 2.355 2.16 2.276.52 0 1.3-.257 1.5.416.2.673-.48.97-.88 1.366a18.05 18.05 0 0 1-8.66 4.83c-3.8 1.009-7.68 1.8-11.38 3.028-9.5 3.147-18.28 7.541-25.12 14.984a55.305 55.305 0 0 0-9.48 15.518c-7.34 17.102-10.9 35.114-13.66 53.305-1.3 8.531-2.22 17.102-2.92 25.732C70.4 212.39 70 216.685 70 221h66.66a4.278 4.278 0 0 0-.46-2.534 9.9 9.9 0 0 0-3.025-4.032 10.039 10.039 0 0 0-4.635-2.044c-1.4-.317-1.56-.733-.7-1.821a20.41 20.41 0 0 0 3.18-6.136c3.26-9.521 4.52-19.458 6.1-29.295a58.966 58.966 0 0 1 6.88-21.437 42.908 42.908 0 0 1 11.18-12.609c1.66-1.247 1.72-1.247 2 .871.2 1.406.24 2.851.34 4.276.6 9.351.48 18.734-.36 28.067a120.805 120.805 0 0 0-.3 21.774A147.413 147.413 0 0 0 161.4 221H188a10.665 10.665 0 0 0-2.858-5.7 10.85 10.85 0 0 0-5.622-3.088 18.173 18.173 0 0 0-7.52.395c-1.2.278-1.7 0-1.8-1.286a110.44 110.44 0 0 1 2-31.314 348.463 348.463 0 0 0 6.12-35.985 34.886 34.886 0 0 1 4.56-13.856c2.38-4.196 4.46-8.551 6.8-12.767a11.506 11.506 0 0 0 .84-10.273c-.54-1.405-1.06-2.83-1.72-4.176-2-3.86-4-7.68-5.84-11.58-.98-1.98-.76-2.217 1.42-2.276 3.26 0 3.26 0 3.32-3.246V84.54c0-1.365-.52-2.117-2-1.979h-3.04c-1.38 0-1.78-.574-1.44-1.98a12.342 12.342 0 0 1 3.822-5.882 12.54 12.54 0 0 1 6.438-2.886 44.446 44.446 0 0 1 13.24.851 2.017 2.017 0 0 0 1.512-.126c.468-.237.823-.647.988-1.14.8-1.98 1.68-3.96 2.58-5.939a1.96 1.96 0 0 0-.2-2.256c-6.4-8.037-13.34-15.538-22.8-20.348a2.973 2.973 0 0 1-1.165-.887 2.939 2.939 0 0 1-.595-1.33 38.465 38.465 0 0 0-2.54-8.235A6.944 6.944 0 0 0 179.68 29z"/></symbol><symbol id="check" viewBox="0 0 19 15">
<path d="M7 11.718L1.3 5.26951L0.25 6.45739L7 14.0938L18.25 1.36648L17.2 0.09375L7 11.718Z" fill="#68B738"/>
</symbol><symbol id="cross" viewBox="0 0 24 24"><path d="m3.515 3.515 16.97 16.97m-16.97 0 16.97-16.97" stroke="#000" stroke-width="2"/></symbol><symbol id="eat" viewBox="0 0 32 32"><path d="M6.5 2v5.5c0 1.486 1.08 2.632 2.5 2.91V2c0-1.29 2-1.29 2 0v8.41c1.42-.278 2.5-1.424 2.5-2.91V2c0-1.29 2-1.29 2 0v5.5c0 2.597-1.988 4.597-4.5 4.935V30c0 1.29-2 1.29-2 0V12.435c-2.512-.338-4.5-2.338-4.5-4.935V2c0-1.29 2-1.29 2 0zm17.207-.707C23.09.676 22 1.128 22 2v28c0 1.29 2 1.29 2 0v-9h3.5a1 1 0 0 0 1-1c0-5.492-.763-9.72-1.734-12.79-.962-3.04-2.15-5.009-3.059-5.917zM26.491 19H24V5.519c1.855 4.195 2.41 8.94 2.491 13.481z" fill="#fff"/></symbol><symbol id="sprite" viewBox="0 0 280 280"><style>:root&gt;svg{display:none}:root&gt;svg:target{display:block}</style><svg viewBox="0 0 32 10" id="arrow" xmlns="http://www.w3.org/2000/svg"/><svg viewBox="0 0 280 280" id="cat-pro" xmlns="http://www.w3.org/2000/svg"/><svg viewBox="0 0 280 280" id="cat-slim" xmlns="http://www.w3.org/2000/svg"/><svg fill="none" viewBox="0 0 19 15" id="check" xmlns="http://www.w3.org/2000/svg"/><svg viewBox="0 0 24 24" id="cross" xmlns="http://www.w3.org/2000/svg"/><svg viewBox="0 0 32 32" id="eat" xmlns="http://www.w3.org/2000/svg"/><path d="M25 10l7-5-7-5v4H0v2h25v4z"/><path d="M250.2 95.6a30.402 30.402 0 019-9.2c2-1.4 3.2-1.4 4.4 1.2 1.6 3.8 3 7.8 1.8 12a4.577 4.577 0 00.8 4.2c1.2 1.6 2.2 3.2 3.2 4.6a12.54 12.54 0 011.8 12.4 10.865 10.865 0 00-.4 6.2c.4 1.98.4 4.02 0 6a7.502 7.502 0 01-5.4 6.4 10.424 10.424 0 00-6.4 4 2.104 2.104 0 01-1.8 1c-2.4.4-8.4-5-8.4-7.4v-1.2c.2-7.2-.2-7.8-6.8-10.8a8.779 8.779 0 01-3.6-2.4c-1.2-1.6-2.8-1.4-4.6-.8-1.8.6-2.8 1.8-2.6 3.8.603 4.842.804 9.725.6 14.6.013.556.15 1.103.4 1.6 6.2 9 8.6 19.6 11.6 29.8 2.4 7.8 6.8 12 14.8 12.6 1.28.102 2.551.303 3.8.6a8.322 8.322 0 016.8 6.4c1.4 4.2.6 5.2-3.6 5.2h-13a6.481 6.481 0 01-4.6-1.6 23.413 23.413 0 00-6.8-4 14.525 14.525 0 01-6.8-5.2 57.213 57.213 0 00-8-9c-5.6-5.8-11.6-11.4-16.8-17.4a22.758 22.758 0 01-6.4-15.2c0-1.8-.4-2.6-2.4-1.8a3.865 3.865 0 01-2 .6c-5.6 0-8.4 3.4-10.4 8.4-1.8 4.2-4.2 8.2-6.4 12.4a20.786 20.786 0 00-2 8.4c0 4.8 1.2 6.4 5.6 8 2.8 1 5.4 2 6.8 4.8 1.6 3.2 1.2 4-2.2 4.2h-13.6a3.763 3.763 0 01-3.8-2.2l-3.6-6a12.103 12.103 0 01-1.4-10.8c.866-3.473.934-7.097.2-10.6a16.841 16.841 0 013.4-14c1.2-1.4 1.2-2-.8-2.4a100.105 100.105 0 01-23.6-8.2.197.197 0 01-.141-.059.197.197 0 01-.059-.141c-6.4-2.4-7.6-2-9.4 4.6-1.6 5.6-3.2 11.2-4.4 17-1.4 6.4.2 12.4 2.2 18.4.8 2.4 3.2 2.2 5 2.8 4 1.2 7.4 2.8 9 7 1.4 3.2 1.2 3.6-2.2 3.6-3.4 0-6.8-.2-10.4 0a13.278 13.278 0 01-8.4-2.8c-9.6-6.4-12.4-16.2-13.2-26.8-.4-6.6-4-11.8-8.2-16.8-.8-1-1.6-1.4-2.8-.6a88.649 88.649 0 01-13.4 6 53.421 53.421 0 00-24.4 17.6 21.26 21.26 0 00-4.4 10.2c-.6 3.6.4 5.2 4 6.2s5.4 3 5.8 6.8c.2 1.6-.4 2.4-2 2.4H53.4a3.308 3.308 0 01-2.6-1.6 17.121 17.121 0 01-3.8-11c-.105-6.91.498-13.813 1.8-20.6a12.594 12.594 0 016.8-9.6c11.8-5.6 18-16.2 23.6-27.2 1.2-2.2.2-2.6-1.8-2.4a32.94 32.94 0 00-15.4 6.4 141.256 141.256 0 00-16.6 14.2 33.343 33.343 0 01-20.6 9.8c-14.6.8-21.4-7.4-20.8-20.6a19.378 19.378 0 014.8-12.2 8.504 8.504 0 019-3c3 .8 3.8 2.4 2.6 5.4-.6 1.2-1.4 2.2-2 3.4a15 15 0 00-2 4c-2.2 6 .8 10.2 7 10.8 6.6.6 12-2.2 17-6.2a89.903 89.903 0 0016-16.6A41.579 41.579 0 0185.2 97c4.6-.6 8.6-2.6 13-3.8a83.02 83.02 0 0125.4-3.6 26.001 26.001 0 0011.6-2.2c9.8-4 20-4 30.2-2 8 1.6 16 3.6 23.8 5.6a33.16 33.16 0 0014-.4 135.58 135.58 0 0126.8-4 36.32 36.32 0 0117.2 3.4c4 1.8 4 1.8 3 5.6z"/><path d="M179.68 29h-.76a6.956 6.956 0 00-2.92 3.147 30.524 30.524 0 00-2.58 6.75 3.214 3.214 0 01-1.022 1.827c-.535.48-1.217.77-1.938.825a14.755 14.755 0 00-6.105 2.543 14.57 14.57 0 00-4.355 4.94 53.806 53.806 0 00-3.7 7.917c-2.84 7.284-5.02 14.806-7.7 22.15-1.26 3.344-1.32 3.344-5.12 3.344-4.54 0-4.22-.692-4.28 4.256 0 1.564.48 2.355 2.16 2.276.52 0 1.3-.257 1.5.416.2.673-.48.97-.88 1.366a18.05 18.05 0 01-8.66 4.83c-3.8 1.009-7.68 1.8-11.38 3.028-9.5 3.147-18.28 7.541-25.12 14.984a55.305 55.305 0 00-9.48 15.518c-7.34 17.102-10.9 35.114-13.66 53.305-1.3 8.531-2.22 17.102-2.92 25.732C70.4 212.39 70 216.685 70 221h66.66a4.278 4.278 0 00-.46-2.534 9.9 9.9 0 00-3.025-4.032 10.039 10.039 0 00-4.635-2.044c-1.4-.317-1.56-.733-.7-1.821a20.41 20.41 0 003.18-6.136c3.26-9.521 4.52-19.458 6.1-29.295a58.966 58.966 0 016.88-21.437 42.908 42.908 0 0111.18-12.609c1.66-1.247 1.72-1.247 2 .871.2 1.406.24 2.851.34 4.276.6 9.351.48 18.734-.36 28.067a120.805 120.805 0 00-.3 21.774A147.413 147.413 0 00161.4 221H188a10.665 10.665 0 00-2.858-5.7 10.85 10.85 0 00-5.622-3.088 18.173 18.173 0 00-7.52.395c-1.2.278-1.7 0-1.8-1.286a110.44 110.44 0 012-31.314 348.463 348.463 0 006.12-35.985 34.886 34.886 0 014.56-13.856c2.38-4.196 4.46-8.551 6.8-12.767a11.506 11.506 0 00.84-10.273c-.54-1.405-1.06-2.83-1.72-4.176-2-3.86-4-7.68-5.84-11.58-.98-1.98-.76-2.217 1.42-2.276 3.26 0 3.26 0 3.32-3.246V84.54c0-1.365-.52-2.117-2-1.979h-3.04c-1.38 0-1.78-.574-1.44-1.98a12.342 12.342 0 013.822-5.882 12.54 12.54 0 016.438-2.886 44.446 44.446 0 0113.24.851 2.017 2.017 0 001.512-.126c.468-.237.823-.647.988-1.14.8-1.98 1.68-3.96 2.58-5.939a1.96 1.96 0 00-.2-2.256c-6.4-8.037-13.34-15.538-22.8-20.348a2.973 2.973 0 01-1.165-.887 2.939 2.939 0 01-.595-1.33 38.465 38.465 0 00-2.54-8.235A6.944 6.944 0 00179.68 29z"/><path d="M7 11.718L1.3 5.27.25 6.457 7 14.094 18.25 1.366 17.2.094 7 11.718z" fill="#68B738"/><path d="M3.515 3.515l16.97 16.97m-16.97 0l16.97-16.97" stroke="#000" stroke-width="2"/><path d="M6.5 2v5.5c0 1.486 1.08 2.632 2.5 2.91V2c0-1.29 2-1.29 2 0v8.41c1.42-.278 2.5-1.424 2.5-2.91V2c0-1.29 2-1.29 2 0v5.5c0 2.597-1.988 4.597-4.5 4.935V30c0 1.29-2 1.29-2 0V12.435c-2.512-.338-4.5-2.338-4.5-4.935V2c0-1.29 2-1.29 2 0zm17.207-.707C23.09.676 22 1.128 22 2v28c0 1.29 2 1.29 2 0v-9h3.5a1 1 0 001-1c0-5.492-.763-9.72-1.734-12.79-.962-3.04-2.15-5.009-3.059-5.917zM26.491 19H24V5.519c1.855 4.195 2.41 8.94 2.491 13.481z" fill="#fff"/></symbol></svg>